<svg width="24" height="24" xmlns="http://www.w3.org/2000/svg">
 <!-- Created with SVG Editor - http://github.com/mzalive/SVG Editor/ -->

 <g>
  <title>background</title>
  <rect x="-1" y="-1" width="26" height="26" id="canvas_background" fill="none"/>
 </g>
 <g>
  <title>Layer 1</title>
  <path stroke="null" d="m11.999995,5.999999c-4.418,0 -8,3.796 -8,5c0,1.317 3.582,5 8,5s8,-3.583 8,-5c0,-1.167 -3.581,-5 -8,-5zm0,1.555c1.337,0 2.42,1.084 2.42,2.42c0,1.337 -1.084,2.42 -2.42,2.42s-2.42,-1.084 -2.42,-2.42c0,-1.337 1.083,-2.42 2.42,-2.42zm0,7.215c-3.544,0 -6.417,-2.778 -6.417,-3.771c0,-0.589 1.213,-1.998 3.03,-2.917c-0.315,0.563 -0.51,1.202 -0.51,1.892c0,2.152 1.744,3.896 3.896,3.896s3.896,-1.744 3.896,-3.896c0,-0.687 -0.193,-1.323 -0.505,-1.884c1.815,0.925 3.027,2.338 3.027,2.908c0,1.07 -2.873,3.772 -6.417,3.772z" id="svg_419"/>
 </g>
</svg>